<svg aria-hidden="true" style="position: absolute; width: 0; height: 0; overflow: hidden;" version="1.1" xmlns="http://www.w3.org/2000/svg" xmlns:xlink="http://www.w3.org/1999/xlink">
<defs>
<symbol id="icon-add_ic_call-24px" viewBox="0 0 32 32">
<path d="M26.667 20.667c-1.667 0-3.267-0.267-4.76-0.76-0.467-0.147-0.987-0.040-1.36 0.32l-2.933 2.933c-3.773-1.92-6.867-5-8.787-8.787l2.933-2.947c0.373-0.347 0.48-0.867 0.333-1.333-0.493-1.493-0.76-3.093-0.76-4.76 0-0.733-0.6-1.333-1.333-1.333h-4.667c-0.733 0-1.333 0.6-1.333 1.333 0 12.52 10.147 22.667 22.667 22.667 0.733 0 1.333-0.6 1.333-1.333v-4.667c0-0.733-0.6-1.333-1.333-1.333zM28 8h-4v-4h-2.667v4h-4v2.667h4v4h2.667v-4h4z"></path>
</symbol>
<symbol id="icon-stay_current_portrait-24px" viewBox="0 0 32 32">
<path d="M22.667 1.347l-13.333-0.013c-1.467 0-2.653 1.2-2.653 2.667v24c0 1.467 1.187 2.667 2.653 2.667h13.333c1.467 0 2.667-1.2 2.667-2.667v-24c0-1.467-1.2-2.653-2.667-2.653zM22.667 25.333h-13.333v-18.667h13.333v18.667z"></path>
</symbol>
<symbol id="icon-mail_outline-24px" viewBox="0 0 32 32">
<path d="M26.667 5.333h-21.333c-1.467 0-2.653 1.2-2.653 2.667l-0.013 16c0 1.467 1.2 2.667 2.667 2.667h21.333c1.467 0 2.667-1.2 2.667-2.667v-16c0-1.467-1.2-2.667-2.667-2.667zM26.667 24h-21.333v-13.333l10.667 6.667 10.667-6.667v13.333zM16 14.667l-10.667-6.667h21.333l-10.667 6.667z"></path>
</symbol>
</defs>
</svg>
